HIERARCHY
ROOT joint_0
{
	OFFSET 0.000000 0.000000 0.000000
	CHANNELS 6 Xposition Yposition Zposition Zrotation Yrotation Xrotation 
	JOINT joint_1
	{
		OFFSET 10.084412 4.114712 95.061035
		CHANNELS 3 Zrotation Yrotation Xrotation
		JOINT joint_2
		{
			OFFSET -1.615463 4.243484 87.329956
			CHANNELS 3 Zrotation Yrotation Xrotation
			JOINT joint_3
			{
				OFFSET -3.579636 4.638191 87.154053
				CHANNELS 3 Zrotation Yrotation Xrotation
				JOINT joint_4
				{
					OFFSET 5.443451 7.217075 123.562988
					CHANNELS 3 Zrotation Yrotation Xrotation
					JOINT joint_5
					{
						OFFSET 21.688065 15.141808 90.458008
						CHANNELS 3 Zrotation Yrotation Xrotation
						End Site
						{
							OFFSET 0.000000 0.000000 0.000000
						}
					}
				}
				JOINT joint_6
				{
					OFFSET 3.611374 -22.863556 70.791992
					CHANNELS 3 Zrotation Yrotation Xrotation
					JOINT joint_7
					{
						OFFSET 3.493607 -153.029137 -12.665039
						CHANNELS 3 Zrotation Yrotation Xrotation
						JOINT joint_8
						{
							OFFSET -14.929443 -32.628616 -254.032959
							CHANNELS 3 Zrotation Yrotation Xrotation
							JOINT joint_9
							{
								OFFSET 11.589401 -3.548126 -242.255005
								CHANNELS 3 Zrotation Yrotation Xrotation
								End Site
								{
									OFFSET 0.000000 0.000000 0.000000
								}
							}
						}
					}
				}
				JOINT joint_10
				{
					OFFSET 2.651962 30.943008 67.690918
					CHANNELS 3 Zrotation Yrotation Xrotation
					JOINT joint_11
					{
						OFFSET -6.172562 150.392159 -30.576904
						CHANNELS 3 Zrotation Yrotation Xrotation
						JOINT joint_12
						{
							OFFSET 15.363358 20.741959 -255.254028
							CHANNELS 3 Zrotation Yrotation Xrotation
							JOINT joint_13
							{
								OFFSET 23.282578 -11.086121 -241.182983
								CHANNELS 3 Zrotation Yrotation Xrotation
								End Site
								{
									OFFSET 0.000000 0.000000 0.000000
								}
							}
						}
					}
				}
			}
		}
	}
	JOINT joint_14
	{
		OFFSET -7.080551 -92.910816 -106.291992
		CHANNELS 3 Zrotation Yrotation Xrotation
		JOINT joint_15
		{
			OFFSET -38.248322 -6.001282 -411.906006
			CHANNELS 3 Zrotation Yrotation Xrotation
			JOINT joint_16
			{
				OFFSET -11.189407 -11.244659 -448.150986
				CHANNELS 3 Zrotation Yrotation Xrotation
				JOINT joint_17
				{
					OFFSET 169.870491 -24.631378 -80.352999
					CHANNELS 3 Zrotation Yrotation Xrotation
					End Site
					{
						OFFSET 0.000000 0.000000 0.000000
					}
				}
			}
		}
	}
	JOINT joint_18
	{
		OFFSET -2.796600 85.817772 -112.273987
		CHANNELS 3 Zrotation Yrotation Xrotation
		JOINT joint_19
		{
			OFFSET -44.395859 -8.174402 -411.255005
			CHANNELS 3 Zrotation Yrotation Xrotation
			JOINT joint_20
			{
				OFFSET -25.617508 -5.555587 -447.666992
				CHANNELS 3 Zrotation Yrotation Xrotation
				JOINT joint_21
				{
					OFFSET 163.870811 53.215703 -78.867000
					CHANNELS 3 Zrotation Yrotation Xrotation
					End Site
					{
						OFFSET 0.000000 0.000000 0.000000
					}
				}
			}
		}
	}
}
MOTION
Frames: 15
Frame Time: 0.016667
-788.023743 -73.106560 1061.770020 0.307037 1.911839 4.197291 -0.724892 -3.372664 -1.445029 -0.891364 0.515397 0.175022 -0.840649 -0.651259 -0.104600 -1.383906 0.233232 5.639086 0.000000 0.000000 0.000000 0.286469 -1.115827 5.203061 0.915888 -1.469952 -6.742772 0.164867 -0.154398 3.149897 0.000000 0.000000 0.000000 -0.988176 0.373406 -4.021896 0.399570 0.880123 1.532780 0.207670 -1.441218 1.458125 0.000000 0.000000 0.000000 2.578059 -2.726091 -6.726164 1.962225 3.098224 -0.510188 2.142052 -4.403226 0.374045 0.000000 0.000000 0.000000 -3.537382 -2.368548 -0.484400 -3.558301 0.818903 -0.953124 -3.508762 0.395079 -1.817446 0.000000 0.000000 0.000000 
-784.351624 -73.428894 1061.505005 0.241893 2.566347 4.231540 -0.744179 -2.926738 -1.522609 -0.887833 0.508641 0.189982 -0.843387 -0.564952 -0.109217 -1.120724 -1.484845 5.754280 0.000000 0.000000 0.000000 0.065023 -0.663426 4.365348 0.693565 -0.967463 -6.087069 0.245784 -2.104848 3.970331 0.000000 0.000000 0.000000 -1.271338 0.946953 -3.532118 0.627829 1.542286 1.433489 0.212823 -3.003216 0.741010 0.000000 0.000000 0.000000 2.644787 -2.949888 -6.837181 2.015626 2.582202 -0.437127 2.177394 -4.323006 0.402576 0.000000 0.000000 0.000000 -3.541019 -2.610096 -0.424356 -3.550021 0.356230 -0.984844 -3.506659 0.499184 -1.850111 0.000000 0.000000 0.000000 
-779.877502 -73.791176 1061.637939 0.062301 3.299421 4.264929 -0.698426 -2.645850 -1.613751 -0.825853 0.518104 0.231638 -0.786370 -0.525478 -0.135746 -0.874626 -2.948351 5.781300 0.000000 0.000000 0.000000 -0.085565 -0.220640 3.494714 0.505197 -0.480202 -5.529253 0.326884 -3.869334 4.851712 0.000000 0.000000 0.000000 -1.656064 1.467646 -2.942405 0.921509 2.191117 1.672848 0.179941 -5.045279 -0.719738 0.000000 0.000000 0.000000 2.754891 -3.483949 -7.009344 2.086923 2.525958 -0.237078 2.251267 -4.331886 0.435924 0.000000 0.000000 0.000000 -3.471040 -3.008116 -0.370560 -3.473096 0.134270 -1.056641 -3.438305 0.588983 -1.846019 0.000000 0.000000 0.000000 
-774.748962 -74.080421 1062.505005 -0.358941 4.187445 4.286370 -0.520767 -2.905199 -1.705258 -0.656586 0.540940 0.304956 -0.619590 -0.563850 -0.191693 -0.751150 -3.433822 5.625828 0.000000 0.000000 0.000000 0.111010 0.032612 2.864862 0.457698 -0.185262 -5.319251 0.357392 -4.328456 5.391248 0.000000 0.000000 0.000000 -2.082840 1.682652 -2.463045 1.239639 2.583905 2.784970 0.061559 -7.173266 -3.380337 0.000000 0.000000 0.000000 2.943541 -4.686658 -7.285990 2.187896 3.375266 0.194996 2.395616 -4.522759 0.475154 0.000000 0.000000 0.000000 -3.242975 -3.716660 -0.365117 -3.256653 0.299980 -1.145041 -3.230819 0.690067 -1.778424 0.000000 0.000000 0.000000 
-768.760010 -74.376907 1063.885010 -0.974940 5.271197 4.307724 -0.234540 -3.590329 -1.855440 -0.392767 0.568901 0.422580 -0.358078 -0.650985 -0.271845 -0.707358 -3.291423 5.350684 0.000000 0.000000 0.000000 0.568266 0.181770 2.300922 0.498620 0.013034 -5.231107 0.349356 -3.818800 5.675716 0.000000 0.000000 0.000000 -2.619277 1.682159 -2.108015 1.629328 2.831564 4.658858 -0.081980 -9.375186 -6.939051 0.000000 0.000000 0.000000 3.195703 -6.435768 -7.658898 2.320320 4.859041 0.801917 2.603419 -4.796243 0.530760 0.000000 0.000000 0.000000 -2.886330 -4.687287 -0.412698 -2.926695 0.689793 -1.236430 -2.910621 0.833798 -1.670235 0.000000 0.000000 0.000000 
-762.830933 -74.568932 1065.988037 -1.550930 5.941144 4.336048 0.021114 -3.982301 -1.949184 -0.138176 0.587049 0.531640 -0.105956 -0.716308 -0.331082 -0.701275 -2.972624 5.108844 0.000000 0.000000 0.000000 1.012798 0.370371 1.482668 0.440427 0.260263 -5.291334 0.410963 -5.013182 6.763968 0.000000 0.000000 0.000000 -3.215868 1.730402 -1.195584 2.382765 3.165709 6.205111 -0.060616 -13.664830 -11.272245 0.000000 0.000000 0.000000 3.471115 -8.153695 -8.059698 2.466401 7.099324 1.456829 2.862382 -5.061145 0.609358 0.000000 0.000000 0.000000 -2.550003 -5.677093 -0.430794 -2.605449 1.904324 -1.511085 -2.605869 0.792573 -1.509103 0.000000 0.000000 0.000000 
-758.185120 -74.464668 1069.176025 -1.927111 5.628606 4.399796 0.157809 -3.432726 -1.890618 0.036752 0.605492 0.560406 0.066784 -0.679707 -0.328793 -0.726850 -2.745879 5.081330 0.000000 0.000000 0.000000 1.285016 0.596410 0.544938 0.150608 0.541085 -5.995413 0.588636 -9.918594 9.355511 0.000000 0.000000 0.000000 -3.900620 1.951480 0.285037 3.941555 3.738553 7.116070 0.426060 -22.442408 -16.355439 0.000000 0.000000 0.000000 3.742853 -9.511261 -8.477027 2.589443 10.534423 2.136040 3.166109 -5.237872 0.717196 0.000000 0.000000 0.000000 -2.328780 -6.634036 -0.329584 -2.363793 4.802837 -2.208931 -2.414087 0.350458 -1.270472 0.000000 0.000000 0.000000 
-754.478943 -74.106819 1073.368042 -2.162888 4.519039 4.484141 0.213875 -2.111863 -1.673042 0.147588 0.578334 0.449969 0.177559 -0.564270 -0.249410 -0.815209 -2.465134 5.290460 0.000000 0.000000 0.000000 1.479223 0.731167 -0.067291 -0.324412 0.710641 -7.610088 0.762932 -17.357855 12.800981 0.000000 0.000000 0.000000 -4.614711 2.064567 1.484567 6.267746 4.206229 8.239110 1.500582 -34.675667 -21.869146 0.000000 0.000000 0.000000 4.008214 -10.658084 -8.899134 2.689435 15.054244 2.854339 3.528401 -5.039872 0.897996 0.000000 0.000000 0.000000 -2.183637 -7.608126 -0.114639 -2.169347 9.147418 -3.233897 -2.339309 -0.125555 -1.072729 0.000000 0.000000 0.000000 
-748.955811 -74.012474 1077.602051 -2.311023 3.450139 4.521899 0.229251 -1.035757 -1.314860 0.196057 0.510857 0.266335 0.229776 -0.491059 -0.145797 -0.913173 -2.185964 5.543189 0.000000 0.000000 0.000000 1.434109 1.182708 -0.896100 -1.132035 1.196235 -9.059258 0.826491 -26.887463 16.772020 0.000000 0.000000 0.000000 -5.096961 2.199479 2.680852 9.028370 4.442104 9.824402 3.080190 -47.324708 -28.471362 0.000000 0.000000 0.000000 4.294527 -11.515408 -9.216919 2.857877 19.095209 3.435244 3.972710 -4.237576 1.198309 0.000000 0.000000 0.000000 -2.120903 -8.233179 0.106027 -2.054256 12.883094 -4.024408 -2.363832 0.020257 -1.121806 0.000000 0.000000 0.000000 
-739.490479 -74.643524 1081.314941 -2.381400 3.132569 4.492675 0.240261 -1.236877 -0.904652 0.204216 0.519646 0.161012 0.244355 -0.527000 -0.083594 -0.970856 -1.930196 5.642022 0.000000 0.000000 0.000000 0.868043 2.518127 -1.941440 -2.423675 2.467876 -10.033579 0.746221 -40.313864 21.513250 0.000000 0.000000 0.000000 -5.181947 2.596124 3.941855 13.008274 4.551187 12.860515 5.809623 -61.334088 -38.397108 0.000000 0.000000 0.000000 4.665746 -12.111224 -9.395997 3.192074 21.528470 3.765549 4.547892 -3.032664 1.619791 0.000000 0.000000 0.000000 -2.137631 -8.402891 0.216369 -2.040775 14.634211 -4.226844 -2.410826 0.817551 -1.397624 0.000000 0.000000 0.000000 
-727.119934 -75.806564 1084.874023 -2.369157 3.259214 4.409558 0.212535 -2.349709 -0.416231 0.165945 0.622425 0.107910 0.214822 -0.641388 -0.042698 -1.000117 -1.692445 5.629957 0.000000 0.000000 0.000000 -0.222963 4.364881 -2.446303 -3.858397 3.824989 -11.312266 0.435411 -57.506115 26.421660 0.000000 0.000000 0.000000 -4.784136 2.262639 4.761724 19.982123 3.414176 17.670935 11.380614 -80.269808 -52.735480 0.000000 0.000000 0.000000 5.128631 -12.498527 -9.476750 3.667423 22.969879 3.948751 5.270685 -1.587369 2.146723 0.000000 0.000000 0.000000 -2.230506 -8.270425 0.266372 -2.117295 15.192015 -4.064895 -2.482329 1.978147 -1.807645 0.000000 0.000000 0.000000 
-713.272400 -76.949356 1087.958984 -2.531571 3.549353 4.383537 0.160341 -3.668570 -0.028363 0.140338 0.774939 0.065369 0.199517 -0.800698 -0.011594 -1.016591 -1.579348 5.673602 0.000000 0.000000 0.000000 -1.225350 5.994261 -3.015427 -5.204949 4.438782 -12.633001 -0.312201 -74.304581 30.802546 0.000000 0.000000 0.000000 -4.044554 -2.803882 5.736218 38.974010 -2.176182 22.901184 -161.187888 -53.104777 105.587218 0.000000 0.000000 0.000000 5.634011 -13.099579 -9.726488 4.171568 24.626060 4.352919 6.093121 -0.317358 2.687159 0.000000 0.000000 0.000000 -2.350523 -7.918053 0.226098 -2.207171 15.219094 -3.836377 -2.549949 3.201349 -2.237661 0.000000 0.000000 0.000000 
-698.725769 -77.649612 1090.288940 -3.078771 3.863785 4.515221 0.091973 -4.804498 0.107391 0.204251 0.950198 0.056553 0.284475 -0.982457 -0.007739 -1.125818 -1.676953 5.828872 0.000000 0.000000 0.000000 -1.732522 7.267086 -4.005976 -6.986097 4.556541 -14.370565 178.049679 -88.790301 -145.062192 0.000000 0.000000 0.000000 -4.827642 0.219692 6.891262 38.554407 -4.222859 23.772094 146.148203 -70.030847 157.532910 0.000000 0.000000 0.000000 6.161258 -14.257164 -10.391134 4.658964 27.420214 5.304562 7.057855 0.744634 3.239625 0.000000 0.000000 0.000000 -2.465236 -7.337565 0.011592 -2.255839 14.978264 -3.694786 -2.582911 4.318930 -2.615816 0.000000 0.000000 0.000000 
-682.962585 -78.110062 1091.994995 -3.893068 4.279572 4.773314 -0.045431 -5.964617 0.053553 0.349032 1.132500 0.091182 0.426092 -1.195426 -0.018963 -1.030371 -1.928686 6.116912 0.000000 0.000000 0.000000 -1.974631 8.480016 -5.102476 -9.661047 3.681852 -16.538815 174.953406 -68.997325 -142.001779 0.000000 0.000000 0.000000 -5.646006 -0.771091 8.419546 39.462724 -3.295495 26.478524 23.533334 -1.817016 -121.284756 0.000000 0.000000 0.000000 6.697214 -15.773468 -11.366900 5.188036 30.864415 6.600100 8.197940 1.964012 3.869663 0.000000 0.000000 0.000000 -2.609231 -6.477805 -0.406489 -2.310743 14.227513 -3.504554 -2.601965 5.462679 -2.995319 0.000000 0.000000 0.000000 
-666.519653 -78.639610 1093.308960 -4.693291 4.654535 5.115587 -0.309235 -6.866378 -0.153970 0.505970 1.269698 0.146164 0.604087 -1.381624 -0.034762 -1.034536 -2.268239 6.485305 0.000000 0.000000 0.000000 -1.871246 7.928903 -6.400414 -12.913337 1.666672 -18.003099 170.936680 -52.104232 -140.472504 0.000000 0.000000 0.000000 -6.721161 0.819075 9.750003 36.840937 -2.647192 26.720756 33.128219 -7.731002 -129.080393 0.000000 0.000000 0.000000 7.025144 -17.297171 -12.391288 5.573036 34.103115 7.628091 9.091568 2.934003 4.348092 0.000000 0.000000 0.000000 -2.812237 -5.610226 -0.903013 -2.421424 13.559716 -3.373945 -2.685814 6.680923 -3.428840 0.000000 0.000000 0.000000 
